<?xml version="1.0" encoding="UTF-8" standalone="no"?>
<!DOCTYPE svg PUBLIC "-//W3C//DTD SVG 1.1//EN" "http://www.w3.org/Graphics/SVG/1.1/DTD/svg11.dtd">
<svg width="100%" height="100%" viewBox="0 0 30 23" version="1.1" xmlns="http://www.w3.org/2000/svg" xmlns:xlink="http://www.w3.org/1999/xlink" xml:space="preserve" xmlns:serif="http://www.serif.com/" style="fill-rule:evenodd;clip-rule:evenodd;stroke-linejoin:round;stroke-miterlimit:2;">
    <g transform="matrix(1,0,0,1,-2416.78,-73.6938)">
        <g transform="matrix(1,0,0,1,2068.38,0)">
            <g id="rect6094-5-9" transform="matrix(0.700873,0,0,0.700873,293.022,-155.953)">
                <path d="M100.381,327.662C96.294,327.662 92.215,329.056 88.894,331.842C86.895,333.52 85.35,335.561 84.277,337.795C84.129,337.781 83.984,337.749 83.831,337.749C81.161,337.749 79.011,339.899 79.011,342.568L79.011,348.525C79.011,351.195 81.161,353.344 83.831,353.344C83.984,353.344 84.129,353.311 84.277,353.298C84.47,353.696 84.668,354.091 84.892,354.48C85.768,356.043 88.108,354.705 87.204,353.157C83.505,346.75 84.938,338.631 90.605,333.876C96.272,329.12 104.504,329.12 110.172,333.876C115.839,338.631 117.271,346.75 113.572,353.157L113.532,353.224L113.506,353.29C113.506,353.29 111.709,357.264 108.181,357.264L103.716,357.224C103.297,356.613 102.627,356.187 101.826,356.187L98.948,356.187C97.657,356.187 96.619,357.229 96.619,358.519C96.619,359.316 97.124,359.92 98.28,359.92L108.181,359.921C113.475,359.921 115.765,354.724 115.869,354.483L115.869,354.469C116.091,354.084 116.287,353.689 116.477,353.294C116.633,353.308 116.785,353.341 116.945,353.341C119.615,353.341 121.764,351.191 121.764,348.521L121.764,342.565C121.764,339.895 119.615,337.745 116.945,337.745C116.791,337.745 116.645,337.771 116.495,337.792C115.424,335.557 113.884,333.516 111.885,331.838C108.564,329.052 104.468,327.658 100.38,327.658L100.381,327.662ZM94.573,336.129C93.535,336.062 92.587,336.281 91.759,337.153C89.551,339.478 88.187,342.642 88.187,346.012C88.187,348.792 89.116,351.907 90.681,352.02C92.91,352.183 96.428,350.718 100.388,350.718C104.585,350.718 108.288,352.361 110.484,351.972C111.815,351.737 112.593,348.556 112.593,346.012C112.593,342.642 111.226,339.478 109.017,337.153C106.809,334.828 103.758,337.153 100.388,337.153C98.282,337.153 96.302,336.243 94.573,336.129ZM94.078,341.859C95.309,341.86 96.307,342.858 96.307,344.089C96.307,345.32 95.309,346.318 94.078,346.318C92.847,346.318 91.849,345.32 91.849,344.089C91.849,342.858 92.847,341.86 94.078,341.859ZM106.699,341.859C107.93,341.86 108.928,342.858 108.928,344.089C108.928,345.32 107.93,346.318 106.699,346.318C105.468,346.318 104.47,345.32 104.469,344.089C104.47,342.858 105.468,341.86 106.699,341.859Z" style="fill:white;"/>
            </g>
        </g>
    </g>
</svg>
