<?xml version="1.0" encoding="UTF-8" standalone="no"?>
<!DOCTYPE svg PUBLIC "-//W3C//DTD SVG 1.1//EN" "http://www.w3.org/Graphics/SVG/1.1/DTD/svg11.dtd">
<svg width="100%" height="100%" viewBox="0 0 40 40" version="1.1" xmlns="http://www.w3.org/2000/svg" xmlns:xlink="http://www.w3.org/1999/xlink" xml:space="preserve" xmlns:serif="http://www.serif.com/" style="fill-rule:evenodd;clip-rule:evenodd;stroke-linejoin:round;stroke-miterlimit:2;">
    <g transform="matrix(1,0,0,1,-2558.38,-60)">
        <g transform="matrix(1,0,0,1,2068.38,0)">
            <g transform="matrix(1,0,0,1,490,60)">
                <path d="M0,20C0,2.6 2.6,0 20,0C37.4,0 40,2.6 40,20C40,37.4 37.4,40 20,40C2.6,40 0,37.4 0,20" style="fill:rgb(35,83,97);fill-rule:nonzero;"/>
            </g>
            <g transform="matrix(0.834725,0,0,0.834725,510,80)">
                <g transform="matrix(1,0,0,1,-16,-16)">
                    <path d="M16,5C12.145,5 9,8.145 9,12C9,14.41 10.23,16.551 12.094,17.813C8.527,19.344 6,22.883 6,27L8,27C8,22.57 11.57,19 16,19C20.43,19 24,22.57 24,27L26,27C26,22.883 23.473,19.344 19.906,17.813C21.77,16.551 23,14.41 23,12C23,8.145 19.855,5 16,5ZM16,7C18.773,7 21,9.227 21,12C21,14.773 18.773,17 16,17C13.227,17 11,14.773 11,12C11,9.227 13.227,7 16,7Z" style="fill:rgb(222,241,245);fill-rule:nonzero;"/>
                </g>
            </g>
        </g>
    </g>
</svg>
